<svg id="Layer_1" data-name="Layer 1" xmlns="http://www.w3.org/2000/svg" xmlns:xlink="http://www.w3.org/1999/xlink" viewBox="0 0 1118 1080"><defs><style>.cls-1{fill:none;}.cls-2{clip-path:url(#clip-path);}</style><clipPath id="clip-path"><rect class="cls-1" x="69.51" y="70.55" width="980.74" height="944.45"/></clipPath></defs><title>Artboard 1</title><g class="cls-2"><path d="M987.4,210.42H961V119.93H987.4ZM881.88,164.15l32.23,46.27H883.22l-28.47-41.55v41.55H828.34V119.93h26.41v40.82l28.1-40.82h30.29ZM772,210.42h-25.2l-32.59-48.58h-.12v48.58H689V119.93h25.2l32.59,47.73h.12V119.93H772Zm-139.32,0h-26.4V119.93h26.4ZM514.34,146.1c0,3.15,4,4.6,11.14,7.14,12.12,4.24,28.59,9.94,28.59,29.2,0,17.2-13,29.92-35.74,29.92-11.75,0-22.53-3.39-29.19-7.88V180c6.54,5.33,16.47,9.58,26,9.58,8.12,0,11.88-3,11.88-6.43,0-4.35-6.18-6.29-13.57-9-9.69-3.51-25.08-9.81-25.08-27.38,0-15.87,12.48-28.83,34.77-28.83a51.38,51.38,0,0,1,25.2,6.3v23.26c-5.69-4-15.39-6.78-23.26-6.78-7.15,0-10.78,2.3-10.78,5.33M440.8,210.42H378.9V119.93h26.41v66.63H440.8Zm-116.17,0H262.12V119.93h62.51v23.5H288.52v10.9H321v21.32H288.52v11.27h36.11Zm-118.84,0H179.37V177.6H151v32.82H124.62V119.93H151v33.8h28.34v-33.8h26.42Zm840.3-139.87H69.51V264.3h976.58Z"/><path d="M981.56,948V922.59H989c9.11,0,16.11,4.07,16.11,12.69,0,8.46-7,12.69-15.95,12.69Zm34.16,21.31c20.18-8.46,25.22-25,25.22-36.44,0-28.8-21.15-42.3-51.57-42.3H946.09v121.53h35.47V974.49h.81l23.11,37.58h41.8Zm-233.78,42.79h83.95V980.51H817.4V965.38H861V936.74H817.4V922.11h48.49V890.54H781.94Zm-144.14,0h35.46V922.59h33.35V890.54H604.28v32.05H637.8ZM532.21,890.54H498.53v64.1h-.16l-43.76-64.1H420.76v121.53h33.68V946.83h.17l43.76,65.24h33.84Zm-275.6,121.53h83.95V980.51H292.08V965.38h43.6V936.74h-43.6V922.11h48.48V890.54H256.61Zm-79.23-5.53v-35c-9.92,7.16-18.55,11.23-29.77,11.23-19.2,0-33-13.51-33-31.4,0-18.06,13.83-31.24,33-31.24,11.22,0,20,3.25,29.77,10.25V895.91a74.16,74.16,0,0,0-34.33-8.46c-35.3,0-64.26,26-64.26,63.94,0,37.74,29,63.61,64.26,63.61a74.16,74.16,0,0,0,34.33-8.46"/><path d="M725.31,456.67h89.27c46.42,0,82.84,10.24,82.84,49.52,0,40-36.42,50.94-82.84,50.94H725.31Zm324.94,349.69L936,636.4c51.42-30,81.72-58,82.12-124.9.57-93.73-80.7-161.23-201.39-161.23H604.62V806.36H725.31V665.68h92.13l92.12,140.68Z"/></g><polygon points="560.81 805.28 399.95 581.12 558.68 350.27 414.83 350.27 319.88 490.79 224.93 350.27 81.08 350.27 239.81 581.12 78.96 805.28 216.43 805.28 320.59 665.43 424.05 805.28 560.81 805.28"/><g class="cls-2"><path d="M123.48,472.07l69.89,105.7s-69.89,107.75-69.89,96.41Z"/></g></svg>